<svg xmlns="http://www.w3.org/2000/svg" viewBox="0 0 300 150" fill="currentColor">
  <path d="M150,25c-41.42,0-75,33.58-75,75s33.58,75,75,75s75-33.58,75-75S191.42,25,150,25z M150,155c-30.38,0-55-24.62-55-55 s24.62-55,55-55s55,24.62,55,55S180.38,155,150,155z"/>
  <path d="M150,60c-22.09,0-40,17.91-40,40s17.91,40,40,40s40-17.91,40-40S172.09,60,150,60z M150,120c-11.05,0-20-8.95-20-20 s8.95-20,20-20s20,8.95,20,20S161.05,120,150,120z"/>
  <path d="M65,100h20v-10H65V100z M215,90v10h20V90H215z"/>
  <text x="150" y="105" font-family="Arial" font-size="14" text-anchor="middle">UNIVERSAL</text>
</svg>
